<svg width="56" height="44" viewBox="0 0 56 44" fill="none" xmlns="http://www.w3.org/2000/svg">
<path d="M54.7969 23.2032H43.311C39.7844 23.2032 36.9152 20.334 36.9152 16.8073V8.65715C36.9743 7.06257 39.2628 7.06378 39.3214 8.65715V16.8073C39.3214 19.0072 41.1111 20.7969 43.311 20.7969H54.7969C56.3915 20.8561 56.3903 23.1445 54.7969 23.2032Z" fill="#FFD550"/>
<path d="M54.7969 29.8746H49.7933C48.1987 29.8155 48.1999 27.527 49.7933 27.4684H54.7969C56.3915 27.5276 56.3902 29.816 54.7969 29.8746Z" fill="#FFD550"/>
<path d="M9.54242 29.8746H4.53884C2.94427 29.8155 2.94547 27.527 4.53884 27.4684H9.54242C11.137 27.5276 11.1358 29.816 9.54242 29.8746Z" fill="#FFD550"/>
<path d="M55.873 21.462L49.2016 8.11914C48.9978 7.7115 48.5811 7.45403 48.1254 7.45403H32.5388V1.98572C32.5388 1.66656 32.4121 1.36064 32.1864 1.135C31.9607 0.909358 31.6548 0.782593 31.3357 0.782593L1.20312 0.782702C0.538672 0.782702 0 1.32137 0 1.98583C0 4.6385 1.31972 6.98722 3.33572 8.41467V35.3429C3.33572 36.0074 3.87439 36.546 4.53884 36.546H10.9723C12.5669 36.4869 12.5657 34.1984 10.9723 34.1398H5.74197V14.3183C6.03105 14.5976 6.34244 14.8538 6.67144 15.0867V15.3286C6.67144 19.6707 10.2039 23.2032 14.546 23.2032H24.553C26.1476 23.144 26.1464 20.8555 24.553 20.7969H14.546C11.8478 20.7969 9.60127 18.8321 9.15841 16.2584C9.81313 16.4354 10.5005 16.5317 11.2103 16.5317H21.2173C22.8119 16.4725 22.8107 14.1841 21.2173 14.1255H11.2103C8.51222 14.1255 6.26587 12.1609 5.82269 9.5875C6.4773 9.76436 7.16472 9.86039 7.87456 9.86039H17.8816C19.4762 9.80122 19.475 7.51276 17.8816 7.45414H7.87456C5.27253 7.45414 3.08908 5.62747 2.53958 3.18895L30.1326 3.18884V8.65715V34.1397H21.3593C19.7647 34.1988 19.7659 36.4873 21.3593 36.5459H37.6846C39.2792 36.4867 39.278 34.1983 37.6846 34.1397H32.5388V9.86028H47.3818L53.5938 22.2841V34.1398H48.1254C46.5309 34.199 46.5321 36.4874 48.1254 36.546H54.7969C55.4613 36.546 56 36.0074 56 35.3429V22C56 21.8133 55.9566 21.629 55.873 21.462Z" fill="black"/>
<path d="M43.1218 43.2175C39.6995 43.2175 36.9153 40.4331 36.9153 37.0108C37.2273 28.788 49.0178 28.7904 49.3286 37.0109C49.3286 40.4331 46.5442 43.2175 43.1218 43.2175ZM43.1218 33.2103C41.0263 33.2103 39.3215 34.9152 39.3215 37.0108C39.5126 42.0458 46.732 42.0442 46.9223 37.0108C46.9223 34.9152 45.2174 33.2103 43.1218 33.2103Z" fill="#FFD550"/>
<path d="M16.2137 43.2175C12.7914 43.2175 10.0072 40.4331 10.0072 37.0108C10.3192 28.788 22.1097 28.7904 22.4205 37.0109C22.4205 40.4331 19.6361 43.2175 16.2137 43.2175ZM16.2137 33.2103C14.1182 33.2103 12.4134 34.9152 12.4134 37.0108C12.6045 42.0458 19.8239 42.0442 20.0142 37.0108C20.0142 34.9152 18.3093 33.2103 16.2137 33.2103Z" fill="#FFD550"/>
</svg>
