<svg width="56" height="56" viewBox="0 0 56 56" fill="none" xmlns="http://www.w3.org/2000/svg">
<g clip-path="url(#clip0_19_156)">
<path d="M52.4974 27.8455C52.9654 27.3741 52.9628 26.6126 52.4913 26.1444C52.02 25.6763 51.2585 25.6789 50.7902 26.1503L49.9044 27.0422L50.0855 30.2741L52.4974 27.8455Z" fill="#FFD550"/>
<path d="M51.3595 36.0887L50.4619 36.9926L50.643 40.2244L53.0666 37.7839C53.5347 37.3124 53.5321 36.5509 53.0606 36.0828C52.5893 35.6148 51.8278 35.6172 51.3595 36.0887Z" fill="#FFD550"/>
<path d="M30.1098 5.30175C30.578 4.83034 30.5753 4.06882 30.1039 3.60069C29.6325 3.13266 28.871 3.13518 28.4029 3.60659L25.9951 6.03113L29.2044 6.21342L30.1098 5.30175Z" fill="#FFD550"/>
<path d="M20.2404 4.72851C20.7085 4.2571 20.7059 3.49558 20.2345 3.02744C19.763 2.55931 19.0014 2.56205 18.5334 3.03335L16.1138 5.46981L19.3231 5.65209L20.2404 4.72851Z" fill="#FFD550"/>
<path d="M52.8002 11.8526C55.5219 8.23868 57.392 4.34905 54.6658 1.4262C53.7675 0.521757 52.6409 0.073307 51.3093 0.0918967C48.0411 -0.0417306 42.9662 4.10662 40.9289 6.33028L40.4126 6.85014L7.09809 4.95781C6.7638 4.93867 6.43794 5.05951 6.19693 5.29089C5.95581 5.52228 5.82185 5.84356 5.82721 6.17762L5.91852 11.9709C5.92519 12.3956 6.15537 12.7852 6.52399 12.9961L24.2434 23.1324L22.2148 25.1752C21.2247 26.0786 15.7286 33.0909 14.747 34.2505L4.77678 29.1586C4.31094 28.9207 3.74472 29.0111 3.3761 29.3822L0.349255 32.4301C-0.116581 32.8993 -0.116581 33.6562 0.349255 34.1253L8.24037 42.0715L7.18623 43.3371C7.18142 43.3428 7.17671 43.3485 7.17212 43.3544C5.00292 46.0205 6.96523 50.0884 10.3662 50.0641C12.1143 50.06 12.9526 49.1342 14.2108 48.0838L21.6313 55.5561C21.8571 55.7835 22.1644 55.9114 22.4848 55.9114C22.8052 55.9114 23.1125 55.7835 23.3383 55.5561L26.3651 52.5081C26.7239 52.1468 26.8163 51.5989 26.596 51.1399L22.0073 41.583C23.3006 40.4868 30.0062 35.2538 31.0328 34.1288L33.094 32.0532L43.1501 49.8787C43.3601 50.2507 43.7516 50.4835 44.1786 50.4904L49.9317 50.5823C50.2651 50.5878 50.587 50.454 50.8182 50.2131C51.0497 49.9722 51.1705 49.6459 51.1518 49.3124L49.2726 15.7618L49.7957 15.2351C49.9585 15.0792 51.3682 13.7142 52.8002 11.8526ZM8.31309 11.2481L8.25295 7.43309L38.1475 9.1312L25.9986 21.3651L8.31309 11.2481ZM11.4106 47.2925C9.78933 48.5134 7.82221 46.4601 9.04301 44.8669L9.94319 43.786L12.5098 46.3706L11.4106 47.2925ZM22.485 53.0014C17.7768 48.2603 7.5204 37.9324 2.89812 33.2777L4.46458 31.7004L14.3511 36.7497L19.5148 41.9495L24.0599 51.4156L22.485 53.0014ZM29.3258 32.4337C28.4989 33.3642 21.683 38.706 20.5994 39.6276L16.6823 35.6831C17.6252 34.5723 23.0197 27.694 23.9217 26.8704C26.0278 24.8802 44.0385 6.27363 45.7942 5.18078C48.2734 3.28988 51.3054 1.51478 52.9586 3.12126C55.4852 5.80725 49.5227 12.1582 48.0998 13.5285L29.3258 32.4337ZM48.6778 48.1564L44.9067 48.0961L34.8556 30.2794L46.9919 18.0584L48.6778 48.1564Z" fill="black"/>
</g>
<defs>
<clipPath id="clip0_19_156">
<rect width="56" height="56" fill="white"/>
</clipPath>
</defs>
</svg>
