<svg width="56" height="56" viewBox="0 0 56 56" fill="none" xmlns="http://www.w3.org/2000/svg">
<g clip-path="url(#clip0_19_257)">
<path d="M11.3383 16.5964C8.68701 16.5964 6.53003 14.4395 6.53003 11.7882C6.79417 5.40935 15.8835 5.41121 16.1466 11.7882C16.1466 14.4395 13.9895 16.5964 11.3383 16.5964ZM11.3383 9.38611C10.0138 9.38611 8.93628 10.4637 8.93628 11.7881C9.0683 14.9747 13.6089 14.9738 13.7404 11.7881C13.7404 10.4637 12.6628 9.38611 11.3383 9.38611Z" fill="#FFD550"/>
<path d="M11.3383 33.1557C10.9123 33.1557 10.5176 32.9302 10.3015 32.563L1.74674 18.0338C0.596772 16.0812 -0.007416 13.8487 0.000130879 11.5825C0.000130879 5.2863 5.12249 0.16394 11.4186 0.16394C20.6308 0.178269 25.7876 10.382 21.0457 18.0664L12.3708 32.5702C12.1536 32.9335 11.7613 33.1557 11.3383 33.1557ZM11.4187 2.57019C6.43444 2.56877 2.38199 6.64091 2.40638 11.6249C2.40638 13.448 2.89529 15.2421 3.82027 16.813L11.3465 29.5951L18.981 16.8312C19.9296 15.2453 20.4309 13.4304 20.4309 11.5825C20.4308 6.61313 16.388 2.57019 11.4187 2.57019Z" fill="#FFD550"/>
<path d="M37.0881 45.015C34.3748 45.015 32.1209 47.0185 31.7273 49.6237H7.78099C5.74957 49.6237 4.09691 47.971 4.09691 45.9396C4.09691 43.9082 5.74957 42.2555 7.78099 42.2555H22.8552C30.4831 41.942 30.4889 31.0658 22.8552 30.7495H13.4598L12.3708 32.5702C12.158 32.9262 11.7768 33.1454 11.3635 33.154C11.3628 33.1546 11.3623 33.1551 11.3616 33.1557H22.8551C27.2923 33.3385 27.2963 39.6647 22.8551 39.8492H7.78088C4.42263 39.8492 1.69055 42.5813 1.69055 45.9395C1.69055 49.2978 4.42263 52.0298 7.78088 52.0298H31.9054C33.8362 57.8962 42.3623 56.6824 42.5097 50.4366C42.5098 47.4472 40.0777 45.015 37.0881 45.015ZM37.0881 53.4523C35.4253 53.4523 34.0725 52.0995 34.0725 50.4368C34.2381 46.4363 39.9387 46.4374 40.1037 50.4368C40.1036 52.0995 38.7508 53.4523 37.0881 53.4523Z" fill="black"/>
<path d="M55.999 27.3956C55.98 26.9216 55.6841 26.503 55.2437 26.3268L37.5359 19.2437C36.7679 18.9209 35.8706 19.526 35.8859 20.3609V45.1511C36.6552 44.9709 37.5231 44.9711 38.2922 45.1516V36.9794L55.3318 28.5217C55.7569 28.3106 56.018 27.8697 55.999 27.3956ZM38.2922 34.2929V22.1378L51.8527 27.562L38.2922 34.2929Z" fill="#FFD550"/>
</g>
<defs>
<clipPath id="clip0_19_257">
<rect width="56" height="56" fill="white"/>
</clipPath>
</defs>
</svg>
