<svg width="56" height="56" viewBox="0 0 56 56" fill="none" xmlns="http://www.w3.org/2000/svg">
<g clip-path="url(#clip0_19_194)">
<path d="M24.0302 11.3367C20.8233 13.4368 16.4176 11.1433 16.4332 7.27222C16.4332 5.59544 17.2911 4.11452 18.5927 3.24119C19.3753 2.72021 20.305 2.41434 21.3124 2.41467C22.2767 2.41467 23.2087 2.69397 24.0077 3.22227C24.5618 3.58884 25.3082 3.43661 25.6746 2.8825C26.0411 2.32838 25.889 1.58202 25.3349 1.21556C24.141 0.426111 22.7501 0.00880248 21.3124 0.00880248C20.1044 0.00880248 18.9651 0.305161 17.9611 0.82625C13.2023 -1.69881 7.26889 1.88013 7.31679 7.27233C7.27545 12.686 13.202 16.2243 17.9791 13.7276C20.2029 14.9257 23.2402 14.7622 25.3466 13.3505C26.6471 12.4251 25.4008 10.5165 24.0302 11.3367ZM9.72265 7.27222C9.67945 4.16308 12.7681 1.77307 15.7776 2.55727C13.4604 5.14937 13.4621 9.39988 15.7801 11.99C12.7669 12.7662 9.68055 10.3856 9.72265 7.27222Z" fill="#FFD550"/>
<path d="M41.3982 0.00878906C40.2193 0.00878906 39.0719 0.289838 38.0388 0.826236C37.0348 0.305257 35.8955 0.00878906 34.6875 0.00878906C33.2498 0.00878906 31.8589 0.426097 30.6652 1.21555C30.111 1.58201 29.9588 2.32837 30.3254 2.88249C30.692 3.43649 31.4382 3.58883 31.9923 3.22226C32.7913 2.69384 33.7233 2.41465 34.6877 2.41465C35.6954 2.41444 36.6251 2.72042 37.4079 3.24172C38.7092 4.11505 39.5668 5.59575 39.5668 7.27231C39.5997 11.0959 35.1919 13.4547 32.0142 11.3367C31.4579 10.9733 30.7126 11.1294 30.3491 11.6855C29.9856 12.2417 30.1418 12.9871 30.6979 13.3506C32.821 14.7831 35.8129 14.9163 38.0392 13.7183C42.7985 16.244 48.7308 12.664 48.6831 7.27231C48.6832 3.2671 45.4152 0.00878906 41.3982 0.00878906ZM41.3982 12.1299C40.9984 12.1299 40.6041 12.0812 40.2223 11.9872C42.5385 9.39615 42.538 5.14761 40.2223 2.55726C43.2321 1.77338 46.3202 4.16284 46.2773 7.2722C46.2774 9.95081 44.0886 12.1299 41.3982 12.1299Z" fill="#FFD550"/>
<path d="M41.5319 55.9999H27.8884C27.2241 55.9999 26.6855 55.4613 26.6855 54.7969C26.6855 54.1326 27.2241 53.594 27.8884 53.594H41.5319C43.1238 53.6556 43.1307 55.9352 41.5319 55.9999Z" fill="black"/>
<path d="M28.1114 53.594C25.0654 53.594 18.8531 53.594 15.8322 53.594C15.8323 48.2181 15.8321 33.4445 15.8322 28.2989C15.8322 27.6346 15.2936 27.096 14.6293 27.096C13.965 27.096 13.4264 27.6346 13.4264 28.2989V36.0869C13.305 38.9109 9.25799 38.9257 9.12162 36.0963C9.11539 36.0692 9.12709 28.3157 9.12085 28.2842V25.3807C9.12085 22.8215 11.2122 20.7395 13.7829 20.7395H20.4479C21.1122 20.7395 21.6508 20.2009 21.6508 19.5366C21.6508 18.8722 21.1122 18.3336 20.4479 18.3336C20.4023 18.3336 13.7792 18.3336 13.7374 18.3336H7.07226C3.17498 18.3336 0.00437511 21.4949 0.00437511 25.3807V36.0817C-0.0282134 39.4828 3.74845 41.7227 6.71575 40.0884V54.7969C6.71575 55.4613 7.25434 55.9998 7.91869 55.9998C13.9148 55.9995 22.1159 56.0001 28.1114 55.9998C29.7015 55.9391 29.712 53.6594 28.1114 53.594ZM4.56316 38.2227C3.37609 38.2227 2.41024 37.2622 2.41024 36.0817V25.3807C2.41024 22.8215 4.50159 20.7395 7.07226 20.7395H8.47105C7.37912 21.9803 6.71499 23.6041 6.71499 25.3807V36.0817C6.71674 37.2607 5.74991 38.2231 4.56316 38.2227ZM9.12162 40.0888C10.3861 40.8017 12.162 40.8016 13.4264 40.0884V53.594H9.12162V40.0888Z" fill="#FFD550"/>
<path d="M48.9276 18.3337C45.582 18.3385 38.8969 18.3302 35.552 18.3337C34.8877 18.3337 34.3491 18.8722 34.3491 19.5366C34.3491 20.2009 34.8877 20.7395 35.552 20.7395H42.217C44.7876 20.7395 46.8789 22.8216 46.8789 25.3808V28.2842C46.8762 28.3246 46.8794 36.0565 46.8782 36.0965C46.7787 38.8151 42.771 39.0263 42.7406 36.0818C42.7406 35.4175 42.202 34.8789 41.5377 34.8789C40.8733 34.8789 40.3348 35.4175 40.3348 36.0818C40.3258 36.1606 40.3357 53.5186 40.3293 53.5941H34.599C33.9346 53.5941 33.396 54.1327 33.396 54.797C33.396 55.4614 33.9346 56 34.599 56C34.5991 56.0001 41.5316 56 41.5318 56H48.0811C48.7454 56 49.284 55.4614 49.284 54.797V40.0886C52.2512 41.7215 56.0282 39.4848 55.9953 36.0818V25.3809C55.9955 21.4951 52.8249 18.3337 48.9276 18.3337ZM42.7353 53.594L42.7395 40.1519C43.9646 40.8141 45.6709 40.7676 46.8784 40.0888V53.594H42.7353ZM53.5897 36.0817C53.4731 38.913 49.418 38.9261 49.2846 36.0943C49.2827 36.0894 49.2865 25.3885 49.2849 25.3808C49.2849 23.6041 48.6208 21.9803 47.5288 20.7395H48.9276C51.4983 20.7395 53.5897 22.8216 53.5897 25.3808V36.0817Z" fill="#FFD550"/>
<path d="M28.0227 14.5358C32.0397 14.5358 35.3078 11.2774 35.3078 7.27225C34.9079 -2.36367 21.1362 -2.36083 20.7377 7.27236C20.7378 11.2775 24.0058 14.5358 28.0227 14.5358ZM28.0227 2.4147C30.713 2.4147 32.9019 4.59376 32.9019 7.27225C32.6342 13.7165 23.4104 13.7146 23.1437 7.27225C23.1437 4.59376 25.3324 2.4147 28.0227 2.4147Z" fill="black"/>
<path d="M35.6729 18.3336H20.4934C16.5961 18.3336 13.4255 21.4949 13.4255 25.3807V36.0817C13.3919 39.4824 17.1705 41.7228 20.1369 40.0884V54.7969C20.1369 55.4613 20.6755 55.9998 21.3398 55.9998H34.8219C35.4863 55.9998 36.0249 55.4613 36.0249 54.7969V40.0861C38.9921 41.7232 42.7737 39.487 42.7407 36.0817V25.3807C42.7407 21.495 39.5701 18.3336 35.6729 18.3336ZM40.3349 36.0817C40.2029 38.9733 36.0587 38.8962 36.0249 35.997V28.2989C35.9624 26.7053 33.6829 26.7019 33.619 28.2989V53.594H29.2258V37.1344C29.2258 36.47 28.6872 35.9314 28.0229 35.9314C27.3585 35.9314 26.8199 36.47 26.8199 37.1344V53.594H22.5427C22.5427 48.2244 22.5427 33.4399 22.5427 28.2989C22.4806 26.7054 20.2006 26.7019 20.1369 28.2989V36.0869C20.134 37.265 19.1696 38.2227 17.9843 38.2227C16.7972 38.2227 15.8314 37.2622 15.8314 36.0817V25.3807C15.8314 22.8215 17.9227 20.7395 20.4934 20.7395H35.6729C38.2435 20.7395 40.3349 22.8215 40.3349 25.3807V36.0817Z" fill="black"/>
</g>
<defs>
<clipPath id="clip0_19_194">
<rect width="56" height="56" fill="white"/>
</clipPath>
</defs>
</svg>
