<svg width="56" height="56" viewBox="0 0 56 56" fill="none" xmlns="http://www.w3.org/2000/svg">
<path d="M41.7083 17.2812V4.77608C41.7083 3.49967 41.2112 2.30027 40.3096 1.39989C39.4083 0.497109 38.2087 0 36.9322 0H11.9219C11.6027 0 11.2968 0.126766 11.0712 0.352406L0.352406 11.0712C0.126766 11.2968 0 11.6027 0 11.9219V51.2239C0 53.8575 2.14255 56 4.77597 56H40.5052V53.5938H4.77597C3.46938 53.5938 2.40625 52.5306 2.40625 51.2239V14.9114H10.1353C12.7689 14.9114 14.9114 12.7689 14.9114 10.1353V2.40625H36.9322C37.5654 2.40625 38.1602 2.65267 38.6081 3.10122C39.0555 3.54813 39.302 4.14291 39.302 4.77597V17.2812H41.7083ZM12.5052 10.1353C12.5052 11.442 11.442 12.5052 10.1353 12.5052H2.40625V12.4202L12.4202 2.40625H12.5052V10.1353Z" fill="black"/>
<path d="M19.0676 23.8438H10.1353C9.47086 23.8438 8.93219 23.3051 8.93219 22.6406C8.93219 21.9762 9.47086 21.4375 10.1353 21.4375H19.0676C19.7321 21.4375 20.2708 21.9762 20.2708 22.6406C20.2708 23.3051 19.7322 23.8438 19.0676 23.8438Z" fill="#FFD550"/>
<path d="M19.0676 30.9895H10.1353C9.47086 30.9895 8.93219 30.4508 8.93219 29.7864C8.93219 29.1219 9.47086 28.5833 10.1353 28.5833H19.0676C19.7321 28.5833 20.2708 29.1219 20.2708 29.7864C20.2708 30.4508 19.7322 30.9895 19.0676 30.9895Z" fill="black"/>
<path d="M19.0676 38.1355H10.1353C9.47086 38.1355 8.93219 37.5968 8.93219 36.9324C8.93219 36.2679 9.47086 35.7292 10.1353 35.7292H19.0676C19.7321 35.7292 20.2708 36.2679 20.2708 36.9324C20.2708 37.5968 19.7322 38.1355 19.0676 38.1355Z" fill="#FFD550"/>
<path d="M19.0676 45.2812H10.1353C9.47086 45.2812 8.93219 44.7426 8.93219 44.0781C8.93219 43.4137 9.47086 42.875 10.1353 42.875H19.0676C19.7321 42.875 20.2708 43.4137 20.2708 44.0781C20.2708 44.7426 19.7322 45.2812 19.0676 45.2812Z" fill="black"/>
<path d="M40.5051 56.0001C40.2512 56.0001 39.9972 55.9199 39.7834 55.7594L35.4957 52.5438C32.257 50.1149 29.5881 46.917 27.7776 43.2959C25.9672 39.6751 25.0103 35.6213 25.0103 31.573V22.6407C25.0103 22.1392 25.3214 21.6903 25.791 21.5141L40.0827 16.1547C40.3551 16.0526 40.6552 16.0526 40.9277 16.1547L55.2192 21.5141C55.6889 21.6902 56 22.1391 56 22.6407V31.573C56 35.6214 55.0431 39.6751 53.2327 43.2959C51.4222 46.917 48.7533 50.1149 45.5145 52.5439L41.227 55.7595C41.0131 55.9199 40.7591 56.0001 40.5051 56.0001ZM27.4166 23.4744V31.573C27.4166 39.0269 30.9765 46.1469 36.9394 50.6188L40.5051 53.293L44.0707 50.6188C50.0338 46.1468 53.5937 39.0268 53.5937 31.573V23.4744L40.5051 18.5662L27.4166 23.4744Z" fill="#FFD550"/>
<path d="M40.5052 47.0677C40.2512 47.0677 39.9972 46.9875 39.7833 46.8271L38.3541 45.7551C34.4732 42.8443 32.1562 38.2104 32.1562 33.3594V27.1067C32.1562 26.6053 32.4673 26.1564 32.937 25.9802L40.0828 23.3005C40.3551 23.1983 40.6552 23.1983 40.9277 23.3005L48.0735 25.9802C48.5431 26.1563 48.8542 26.6051 48.8542 27.1067V33.3594C48.8542 38.2104 46.5372 42.8444 42.6564 45.7552L41.2273 46.8271C41.0132 46.9875 40.7593 47.0677 40.5052 47.0677ZM34.5625 27.9405V33.3594C34.5625 37.457 36.5197 41.3713 39.798 43.8302L40.5053 44.3607L41.2125 43.8302C44.4908 41.3713 46.448 37.457 46.448 33.3594V27.9405L40.5053 25.712L34.5625 27.9405Z" fill="black"/>
</svg>
