<svg width="56" height="56" viewBox="0 0 56 56" fill="none" xmlns="http://www.w3.org/2000/svg">
<path d="M24.9708 26.5711C24.6641 26.5711 24.3574 26.4541 24.1234 26.22L19.9076 22.0043C19.4397 21.5363 19.4397 20.7775 19.9076 20.3094C20.3756 19.8415 21.1345 19.8414 21.6025 20.3094L24.9709 23.6778L33.398 15.2506C33.8661 14.7825 34.6249 14.7825 35.093 15.2506C35.5609 15.7186 35.5609 16.4775 35.093 16.9455L25.8183 26.2201C25.5843 26.4541 25.2775 26.5711 24.9708 26.5711Z" fill="#FFD550"/>
<path d="M28 35.2152C19.7992 35.2152 13.1273 28.5434 13.1273 20.3425C13.1273 12.1417 19.7992 5.46985 28 5.46985C36.2008 5.46985 42.8727 12.1417 42.8727 20.3425C42.8727 28.5433 36.2008 35.2152 28 35.2152ZM28 7.86663C21.1208 7.86663 15.5242 13.4632 15.5242 20.3424C15.5242 27.2216 21.1208 32.8182 28 32.8182C34.8792 32.8182 40.4758 27.2216 40.4758 20.3424C40.4758 13.4632 34.8792 7.86663 28 7.86663Z" fill="black"/>
<path d="M28 56C23.6461 56 19.5366 55.4687 16.4286 54.5042C11.8917 53.0961 10.9394 51.2118 10.9394 49.8789C10.9394 48.6496 11.7569 46.894 15.6518 45.5113C18.2612 44.585 21.8222 43.9806 25.679 43.8093L25.7853 46.2039C22.1593 46.3649 18.8452 46.9211 16.4536 47.7702C13.9878 48.6456 13.3362 49.5323 13.3362 49.879C13.3362 50.3436 14.3489 51.3493 17.1389 52.2152C20.0233 53.1101 23.8804 53.6031 28 53.6031C32.1196 53.6031 35.9767 53.1101 38.8609 52.215C41.6509 51.349 42.6637 50.3434 42.6637 49.8788C42.6637 49.5321 42.0122 48.6453 39.5462 47.7699C37.1546 46.9209 33.8406 46.3647 30.2146 46.2037L30.3208 43.8091C34.1777 43.9804 37.7388 44.5848 40.3481 45.5111C44.2429 46.8938 45.0605 48.6494 45.0605 49.8787C45.0605 51.2115 44.1082 53.0959 39.5713 54.504C36.4634 55.4687 32.3539 56 28 56Z" fill="#FFD550"/>
<path d="M28 49.9833C27.579 49.9833 27.189 49.7624 26.9723 49.4015L20.8225 39.1517C12.9953 36.1819 7.76703 28.6344 7.76703 20.233C7.76703 9.07647 16.8435 0 28 0C39.1566 0 48.233 9.07647 48.233 20.233C48.233 28.6344 43.0048 36.1819 35.1775 39.1517L29.0277 49.4015C28.811 49.7624 28.421 49.9833 28 49.9833ZM28 2.39689C18.1652 2.39689 10.1639 10.3981 10.1639 20.233C10.1639 27.7676 14.9339 34.5231 22.0335 37.0431C22.2957 37.1362 22.5171 37.3175 22.6603 37.556L28 46.4555L33.3397 37.556C33.4828 37.3176 33.7044 37.1362 33.9665 37.0431C41.0661 34.523 45.8361 27.7675 45.8361 20.233C45.8361 10.3981 37.8349 2.39689 28 2.39689Z" fill="black"/>
</svg>
