<svg width="27" height="24" viewBox="0 0 27 24" fill="none" xmlns="http://www.w3.org/2000/svg">
<g clip-path="url(#clip0_18_53)">
<path d="M6.90625 7.5C7.18239 7.5 7.40625 7.27614 7.40625 7C7.40625 6.72386 7.18239 6.5 6.90625 6.5C6.63011 6.5 6.40625 6.72386 6.40625 7C6.40625 7.27614 6.63011 7.5 6.90625 7.5Z" stroke="white" stroke-linecap="round" stroke-linejoin="round"/>
<path d="M11.9062 7.5C12.1824 7.5 12.4062 7.27614 12.4062 7C12.4062 6.72386 12.1824 6.5 11.9062 6.5C11.6301 6.5 11.4062 6.72386 11.4062 7C11.4062 7.27614 11.6301 7.5 11.9062 7.5Z" stroke="white" stroke-linecap="round" stroke-linejoin="round"/>
<path d="M25.4062 15C25.4062 12 22.2762 9.5 18.4062 9.5C14.5363 9.5 11.4062 12 11.4062 15C11.4062 18 14.5363 20.5 18.4062 20.5C19.2005 20.5012 19.9912 20.3936 20.7563 20.18L23.4062 21.5L22.5763 19.41C23.3948 18.9896 24.0877 18.3603 24.5847 17.5858C25.0817 16.8114 25.3651 15.9193 25.4062 15Z" stroke="white" stroke-width="1.5" stroke-linecap="round" stroke-linejoin="round"/>
<path d="M14.9062 13.5C15.1824 13.5 15.4062 13.2761 15.4062 13C15.4062 12.7239 15.1824 12.5 14.9062 12.5C14.6301 12.5 14.4062 12.7239 14.4062 13C14.4062 13.2761 14.6301 13.5 14.9062 13.5Z" stroke="white" stroke-linecap="round" stroke-linejoin="round"/>
<path d="M19.9062 13.5C20.1824 13.5 20.4062 13.2761 20.4062 13C20.4062 12.7239 20.1824 12.5 19.9062 12.5C19.6301 12.5 19.4062 12.7239 19.4062 13C19.4062 13.2761 19.6301 13.5 19.9062 13.5Z" stroke="white" stroke-linecap="round" stroke-linejoin="round"/>
<path d="M18.9062 9.52002C18.9062 5.65002 15.2162 2.52002 10.6562 2.52002C6.09625 2.52002 2.40625 5.63002 2.40625 9.50002C2.44333 10.6134 2.75827 11.6998 3.32241 12.6604C3.88654 13.621 4.68195 14.4253 5.63625 15L4.40625 17.5L7.25625 15.87C8.34125 16.2871 9.49384 16.5007 10.6562 16.5C10.9904 16.4972 11.3242 16.4771 11.6562 16.44" stroke="white" stroke-width="1.5" stroke-linecap="round" stroke-linejoin="round"/>
</g>
<defs>
<clipPath id="clip0_18_53">
<rect width="26" height="24" fill="white" transform="translate(0.953125)"/>
</clipPath>
</defs>
</svg>
