<svg width="24" height="24" viewBox="0 0 24 24" fill="none" xmlns="http://www.w3.org/2000/svg">
<g clip-path="url(#clip0_5_829)">
<path d="M13.5938 23.9531H9.75037C9.1084 23.9531 8.58618 23.4309 8.58618 22.7889V14.12H6.34387C5.7019 14.12 5.17969 13.5976 5.17969 12.9558V9.24115C5.17969 8.59918 5.7019 8.07697 6.34387 8.07697H8.58618V6.2168C8.58618 4.37238 9.16534 2.80316 10.2609 1.67908C11.3613 0.549866 12.8992 -0.046875 14.7083 -0.046875L17.6395 -0.0421143C18.2803 -0.0410156 18.8016 0.481201 18.8016 1.12207V4.57105C18.8016 5.21301 18.2796 5.73523 17.6378 5.73523L15.6643 5.73596C15.0624 5.73596 14.9092 5.85663 14.8764 5.89362C14.8224 5.95496 14.7581 6.12836 14.7581 6.60718V8.07678H17.4895C17.6951 8.07678 17.8943 8.1275 18.0656 8.22308C18.4349 8.42944 18.6645 8.81964 18.6645 9.24133L18.663 12.956C18.663 13.5976 18.1408 14.1198 17.4988 14.1198H14.7581V22.7889C14.7581 23.4309 14.2357 23.9531 13.5938 23.9531ZM9.99316 22.5461H13.351V13.4901C13.351 13.0615 13.6998 12.7128 14.1282 12.7128H17.256L17.2573 9.48395H14.1281C13.6996 9.48395 13.351 9.13532 13.351 8.70667V6.60718C13.351 6.0575 13.4068 5.43237 13.8217 4.96252C14.3231 4.39453 15.1132 4.32898 15.6639 4.32898L17.3947 4.32825V1.3645L14.7072 1.36011C11.7999 1.36011 9.99316 3.22119 9.99316 6.2168V8.70667C9.99316 9.13513 9.64453 9.48395 9.21606 9.48395H6.58667V12.7128H9.21606C9.64453 12.7128 9.99316 13.0615 9.99316 13.4901V22.5461Z" fill="white"/>
</g>
<defs>
<clipPath id="clip0_5_829">
<rect width="23.9531" height="24" fill="white"/>
</clipPath>
</defs>
</svg>
