<svg width="25" height="24" viewBox="0 0 25 24" fill="none" xmlns="http://www.w3.org/2000/svg">
<g clip-path="url(#clip0_18_79)">
<path d="M20.2297 20.4054H5.67653C3.07206 20.4054 0.953125 18.2865 0.953125 15.682V8.31813C0.953125 5.71362 3.07206 3.59473 5.67653 3.59473H20.2297C22.8342 3.59473 24.9531 5.71362 24.9531 8.31813V15.6821C24.9531 18.2865 22.8342 20.4054 20.2297 20.4054ZM5.67653 5.00098C3.84747 5.00098 2.35938 6.48902 2.35938 8.31813V15.6821C2.35938 17.5112 3.84747 18.9992 5.67653 18.9992H20.2297C22.0588 18.9992 23.5469 17.5111 23.5469 15.6821V8.31813C23.5469 6.48902 22.0588 5.00098 20.2297 5.00098H5.67653Z" fill="white"/>
<path d="M10.6233 16.5033C10.505 16.5033 10.3865 16.4734 10.2796 16.4135C10.0577 16.2892 9.92017 16.0546 9.92017 15.8001V8.10889C9.92017 7.85295 10.0592 7.61721 10.2833 7.49346C10.5073 7.36967 10.7809 7.3774 10.9975 7.51367L17.1953 11.4104C17.4012 11.5399 17.5255 11.7666 17.5241 12.0098C17.5227 12.2531 17.3956 12.4783 17.1881 12.6053L10.9905 16.3999C10.8779 16.4687 10.7507 16.5033 10.6233 16.5033ZM11.3264 9.3815V14.5452L15.4874 11.9977L11.3264 9.3815Z" fill="white"/>
</g>
<defs>
<clipPath id="clip0_18_79">
<rect width="24" height="24" fill="white" transform="translate(0.953125)"/>
</clipPath>
</defs>
</svg>
